Coordinates
version=1
nRows=18
nColumns=26
inDegrees=yes

Units are S.I. units (second, meters, Newtons, ...)
Angles are in degrees.

endheader
time	pelvis_tilt	pelvis_list	pelvis_rotation	pelvis_tx	pelvis_ty	pelvis_tz	hip_flexion_r	hip_adduction_r	hip_rotation_r	knee_angle_r	knee_angle_r_beta	ankle_angle_r	subtalar_angle_r	mtp_angle_r	hip_flexion_l	hip_adduction_l	hip_rotation_l	knee_angle_l	knee_angle_l_beta	ankle_angle_l	subtalar_angle_l	mtp_angle_l	lumbar_extension	lumbar_bending	lumbar_rotation
     64.90979592	    -13.78561690	      0.11514449	      2.04633394	      0.14646508	      0.92212718	      0.23650091	      0.28782547	      2.22989248	      0.41515046	     54.13974342	     54.13974342	    -24.98654865	     -7.06963520	      0.00000000	     30.65705639	      3.53617878	      5.79576597	      7.50360264	      7.50360264	      2.26285084	      4.30091124	      0.00000000	      3.15958523	     -2.60838017	     14.90285602
     64.91979592	    -13.36406207	      0.26402402	      2.88712102	      0.14451433	      0.91602142	      0.23531364	      1.94756741	      1.65805205	     -0.99443485	     60.05180272	     60.05180272	    -26.08942548	     -9.63361184	      0.00000000	     30.51730068	      4.25378358	      5.71955741	      8.59418889	      8.59418889	      2.03275964	      4.66172700	      0.00000000	      2.26005562	     -2.86483316	     13.32758662
     64.92979592	    -12.92813226	      0.35819077	      3.58589123	      0.14267330	      0.90891611	      0.23449322	      3.63121730	      1.08228235	     -2.22068421	     65.80091278	     65.80091278	    -27.39693166	    -12.65626899	      0.00000000	     30.49392031	      4.81928416	      5.98666871	     10.61539222	     10.61539222	      1.79876952	      4.46822760	      0.00000000	      1.34431059	     -3.05554253	     11.90135097
     64.93979592	    -12.02284667	      0.64001481	      4.31055442	      0.14123756	      0.90147943	      0.23347505	      4.75985036	      0.10135658	     -3.54598738	     71.32024822	     71.32024822	    -28.16408167	    -15.09115879	      0.00000000	     29.91415237	      5.54451406	      6.42207784	     13.12047262	     13.12047262	      1.09413185	      3.59584701	      0.00000000	     -0.12540627	     -3.40796913	     10.51656942
     64.94979592	    -11.81975356	      1.24645132	      4.94847918	      0.13909699	      0.89272627	      0.23210496	      6.86464397	     -1.52883703	     -4.73171987	     76.95800661	     76.95800661	    -28.67355318	    -17.71414344	      0.00000000	     30.16245799	      6.70580173	      7.23466061	     16.24760770	     16.24760770	     -0.37212961	      1.20708075	      0.00000000	     -0.85178426	     -4.08893129	      9.18291155
     64.95979592	    -12.01574726	      2.38483401	      5.57131832	      0.13605966	      0.88306942	      0.22999412	      9.58914617	     -4.03546752	     -5.49373976	     82.70009328	     82.70009328	    -28.13257744	    -19.05425784	      0.00000000	     30.89895360	      8.81142715	      8.48291945	     20.42845639	     20.42845639	      0.51333614	     -3.40674299	      0.00000000	     -1.31458145	     -5.32758137	      8.03540771
     64.96979592	    -12.24472684	      3.56152189	      6.37685492	      0.13220978	      0.87283742	      0.22783054	     12.48050378	     -6.68204190	     -6.05924427	     88.23794648	     88.23794648	    -27.29263460	    -20.15111541	      0.00000000	     32.15309540	     11.21739317	      8.80538189	     26.18136880	     26.18136880	      4.75167008	     -6.39130187	      0.00000000	     -1.94203095	     -6.63456976	      6.39082787
     64.97979592	    -13.09599301	      3.93838882	      6.80407392	      0.12689148	      0.86134623	      0.22683760	     16.62239760	     -8.24483347	     -5.85225968	     93.67874921	     93.67874921	    -26.08877730	    -20.50458846	      0.00000000	     35.14484222	     12.58219971	      8.40854818	     33.47851183	     33.47851183	      9.14787151	     -7.53745203	      0.00000000	     -1.89667325	     -7.10154207	      5.32702801
     64.98979592	    -13.12053795	      4.21047400	      6.93297384	      0.12177087	      0.85202476	      0.22658810	     20.02703629	     -9.29660161	     -5.14110497	     98.29951359	     98.29951359	    -24.99448086	    -20.52175941	      0.00000000	     36.66676509	     13.40412971	      8.36515299	     39.58178040	     39.58178040	     12.58685436	     -7.82803081	      0.00000000	     -2.88225770	     -7.32684477	      4.57580275
     64.99979592	    -12.46545147	      4.61848371	      6.77829286	      0.11748099	      0.84523006	      0.22680006	     22.78909249	    -10.11562007	     -3.98498786	    102.02385401	    102.02385401	    -23.96061140	    -20.16285875	      0.00000000	     36.18197705	     13.89206731	      8.25210712	     43.56321110	     43.56321110	     16.04049443	     -7.57828894	      0.00000000	     -4.61930784	     -7.64449665	      3.92583809
     65.00979592	    -11.84503993	      5.02572937	      6.43980620	      0.11390478	      0.84034608	      0.22736973	     25.67302905	    -10.65369611	     -2.56080411	    104.89418857	    104.89418857	    -22.81080118	    -19.55813083	      0.00000000	     34.75878728	     14.12366210	      8.04050871	     45.87670173	     45.87670173	     19.28024979	     -6.98544281	      0.00000000	     -6.16327324	     -8.03547799	      3.37920814
     65.01979592	    -11.70927439	      5.40976514	      6.06981627	      0.11071345	      0.83679968	      0.22819452	     29.17922617	    -11.05329940	     -1.07210358	    107.04143499	    107.04143499	    -21.31469626	    -18.80317238	      0.00000000	     33.23994241	     14.30212853	      7.80721580	     47.05568327	     47.05568327	     21.87712991	     -6.45857188	      0.00000000	     -7.00790700	     -8.51305778	      2.79931774
     65.02979592	    -12.15283521	      5.54643318	      5.85868012	      0.10764449	      0.83432374	      0.22899857	     33.24434859	    -11.14562105	      0.16659958	    108.39072970	    108.39072970	    -19.53728111	    -17.90681829	      0.00000000	     32.00970335	     14.25043738	      7.62113281	     47.60342097	     47.60342097	     23.86830952	     -5.90822568	      0.00000000	     -7.06269170	     -8.78097218	      1.97437981
     65.03979592	    -12.70912324	      5.32461508	      5.92976911	      0.10527444	      0.83371457	      0.22954138	     37.06702773	    -10.97234335	      0.71065304	    108.69540201	    108.69540201	    -18.01933144	    -17.61866673	      0.00000000	     30.43906764	     13.98326655	      8.02267503	     47.44601796	     47.44601796	     25.33884962	     -5.33884503	      0.00000000	     -6.79399124	     -8.59276576	      0.73865359
     65.04979592	    -13.38007955	      4.80760496	      6.18009156	      0.10358559	      0.83482967	      0.22970514	     40.64514219	    -10.63078444	      0.71660435	    108.03903633	    108.03903633	    -16.34214672	    -17.54664765	      0.00000000	     28.48681170	     13.48091018	      8.92515590	     46.40878309	     46.40878309	     26.32190098	     -4.78850657	      0.00000000	     -6.18108353	     -7.99804377	     -0.82551715
     65.05979592	    -14.21383290	      4.00216259	      6.69067619	      0.10231368	      0.83757652	      0.22942871	     43.92672788	    -10.20855135	      0.15913854	    106.40749931	    106.40749931	    -14.78129567	    -17.74422738	      0.00000000	     26.26465743	     12.80205002	     10.36053549	     44.49294733	     44.49294733	     26.69232300	     -4.53282329	      0.00000000	     -5.21137300	     -7.04810892	     -2.74108606
     65.06979592	    -15.03078136	      2.89413410	      7.39471235	      0.10158157	      0.84185270	      0.22883202	     46.66756759	     -9.68572725	     -0.94394701	    103.86181292	    103.86181292	    -13.55327110	    -18.22719096	      0.00000000	     23.80366548	     11.82707788	     12.18792335	     42.03462600	     42.03462600	     26.29347690	     -4.58104761	      0.00000000	     -4.10722775	     -5.73945073	     -4.99868939
     65.07979592	    -15.66155625	      1.67609865	      8.13299807	      0.10157170	      0.84781914	      0.22800227	     48.68244396	     -9.17683299	     -2.32913499	    100.45499322	    100.45499322	    -12.49148965	    -19.03213741	      0.00000000	     20.93026054	     10.59193015	     14.16124062	     38.92226063	     38.92226063	     24.83939568	     -4.92743627	      0.00000000	     -3.09830688	     -4.22673328	     -7.38872283
